<mxfile host="app.diagrams.net" modified="2024-05-08T01:37:40.187Z" agent="Mozilla/5.0 (Windows NT 10.0; Win64; x64) AppleWebKit/537.36 (KHTML, like Gecko) Chrome/124.0.0.0 Safari/537.36 Edg/124.0.0.0" etag="KWpfzh6QIPYb5trwV3B0" version="24.3.1" type="github">
  <diagram name="第 1 页" id="hJNX8lAzf8RKwbBA4VXU">
    <mxGraphModel dx="2089" dy="714" grid="1" gridSize="10" guides="1" tooltips="1" connect="1" arrows="1" fold="1" page="1" pageScale="1" pageWidth="827" pageHeight="1169" math="0" shadow="0">
      <root>
        <mxCell id="0" />
        <mxCell id="1" parent="0" />
        <mxCell id="9Ep7C8gIcRbLe95KcG3j-2" value="" style="endArrow=classic;html=1;rounded=0;shadow=1;fillColor=#d5e8d4;strokeColor=#82b366;" edge="1" parent="1">
          <mxGeometry width="50" height="50" relative="1" as="geometry">
            <mxPoint x="-119" y="268" as="sourcePoint" />
            <mxPoint x="-119" y="408" as="targetPoint" />
          </mxGeometry>
        </mxCell>
        <mxCell id="9Ep7C8gIcRbLe95KcG3j-3" value="" style="endArrow=classic;html=1;rounded=0;shadow=1;fillColor=#d5e8d4;strokeColor=#82b366;" edge="1" parent="1">
          <mxGeometry width="50" height="50" relative="1" as="geometry">
            <mxPoint x="-109" y="268" as="sourcePoint" />
            <mxPoint x="-109" y="408" as="targetPoint" />
          </mxGeometry>
        </mxCell>
        <mxCell id="9Ep7C8gIcRbLe95KcG3j-4" value="" style="endArrow=classic;html=1;rounded=0;shadow=1;fillColor=#d5e8d4;strokeColor=#82b366;" edge="1" parent="1">
          <mxGeometry width="50" height="50" relative="1" as="geometry">
            <mxPoint x="-99.16999999999996" y="268" as="sourcePoint" />
            <mxPoint x="-99.16999999999996" y="408" as="targetPoint" />
          </mxGeometry>
        </mxCell>
        <mxCell id="9Ep7C8gIcRbLe95KcG3j-5" value="" style="endArrow=classic;html=1;rounded=0;shadow=1;fillColor=#d5e8d4;strokeColor=#82b366;" edge="1" parent="1">
          <mxGeometry width="50" height="50" relative="1" as="geometry">
            <mxPoint x="-89.17000000000002" y="268" as="sourcePoint" />
            <mxPoint x="-89.17000000000002" y="408" as="targetPoint" />
          </mxGeometry>
        </mxCell>
        <mxCell id="9Ep7C8gIcRbLe95KcG3j-6" value="" style="endArrow=classic;html=1;rounded=0;shadow=1;fillColor=#d5e8d4;strokeColor=#82b366;" edge="1" parent="1">
          <mxGeometry width="50" height="50" relative="1" as="geometry">
            <mxPoint x="-79" y="268" as="sourcePoint" />
            <mxPoint x="-79" y="408" as="targetPoint" />
          </mxGeometry>
        </mxCell>
        <mxCell id="9Ep7C8gIcRbLe95KcG3j-7" value="" style="endArrow=classic;html=1;rounded=0;shadow=1;fillColor=#d5e8d4;strokeColor=#82b366;" edge="1" parent="1">
          <mxGeometry width="50" height="50" relative="1" as="geometry">
            <mxPoint x="-69" y="268" as="sourcePoint" />
            <mxPoint x="-69" y="408" as="targetPoint" />
          </mxGeometry>
        </mxCell>
        <mxCell id="9Ep7C8gIcRbLe95KcG3j-10" value="warp0" style="text;html=1;align=center;verticalAlign=middle;whiteSpace=wrap;rounded=0;" vertex="1" parent="1">
          <mxGeometry x="-124" y="240" width="60" height="30" as="geometry" />
        </mxCell>
        <mxCell id="9Ep7C8gIcRbLe95KcG3j-60" value="" style="edgeStyle=orthogonalEdgeStyle;rounded=0;orthogonalLoop=1;jettySize=auto;html=1;" edge="1" parent="1" source="9Ep7C8gIcRbLe95KcG3j-24" target="9Ep7C8gIcRbLe95KcG3j-48">
          <mxGeometry relative="1" as="geometry" />
        </mxCell>
        <mxCell id="9Ep7C8gIcRbLe95KcG3j-61" value="create" style="edgeLabel;html=1;align=center;verticalAlign=middle;resizable=0;points=[];labelBackgroundColor=none;" vertex="1" connectable="0" parent="9Ep7C8gIcRbLe95KcG3j-60">
          <mxGeometry x="-0.0469" relative="1" as="geometry">
            <mxPoint x="-3" y="-15" as="offset" />
          </mxGeometry>
        </mxCell>
        <mxCell id="9Ep7C8gIcRbLe95KcG3j-24" value="TIMER_IN" style="rounded=0;whiteSpace=wrap;html=1;fillColor=#ffe6cc;strokeColor=#d79b00;shadow=1;" vertex="1" parent="1">
          <mxGeometry x="-154" y="410" width="120" height="30" as="geometry" />
        </mxCell>
        <mxCell id="9Ep7C8gIcRbLe95KcG3j-46" value="" style="edgeStyle=orthogonalEdgeStyle;rounded=0;orthogonalLoop=1;jettySize=auto;html=1;entryX=0;entryY=0.5;entryDx=0;entryDy=0;" edge="1" parent="1" source="9Ep7C8gIcRbLe95KcG3j-26" target="9Ep7C8gIcRbLe95KcG3j-49">
          <mxGeometry relative="1" as="geometry">
            <mxPoint x="46" y="615" as="targetPoint" />
          </mxGeometry>
        </mxCell>
        <mxCell id="9Ep7C8gIcRbLe95KcG3j-62" value="update" style="edgeLabel;html=1;align=center;verticalAlign=middle;resizable=0;points=[];labelBackgroundColor=none;" vertex="1" connectable="0" parent="9Ep7C8gIcRbLe95KcG3j-46">
          <mxGeometry x="-0.1828" relative="1" as="geometry">
            <mxPoint y="-15" as="offset" />
          </mxGeometry>
        </mxCell>
        <mxCell id="9Ep7C8gIcRbLe95KcG3j-26" value="TIMER_OUT" style="rounded=0;whiteSpace=wrap;html=1;fillColor=#ffe6cc;strokeColor=#d79b00;shadow=1;" vertex="1" parent="1">
          <mxGeometry x="-154" y="595" width="120" height="30" as="geometry" />
        </mxCell>
        <mxCell id="9Ep7C8gIcRbLe95KcG3j-27" value="" style="shape=curlyBracket;whiteSpace=wrap;html=1;rounded=1;labelPosition=left;verticalLabelPosition=middle;align=right;verticalAlign=middle;" vertex="1" parent="1">
          <mxGeometry x="-184" y="420" width="20" height="200" as="geometry" />
        </mxCell>
        <mxCell id="9Ep7C8gIcRbLe95KcG3j-28" value="phase1" style="text;html=1;align=center;verticalAlign=middle;whiteSpace=wrap;rounded=0;" vertex="1" parent="1">
          <mxGeometry x="-234" y="505" width="60" height="30" as="geometry" />
        </mxCell>
        <mxCell id="9Ep7C8gIcRbLe95KcG3j-35" value="" style="endArrow=classic;html=1;rounded=0;shadow=1;fillColor=#d5e8d4;strokeColor=#82b366;" edge="1" parent="1">
          <mxGeometry width="50" height="50" relative="1" as="geometry">
            <mxPoint x="-119.29000000000002" y="450" as="sourcePoint" />
            <mxPoint x="-119.29000000000002" y="590" as="targetPoint" />
          </mxGeometry>
        </mxCell>
        <mxCell id="9Ep7C8gIcRbLe95KcG3j-36" value="" style="endArrow=classic;html=1;rounded=0;shadow=1;fillColor=#d5e8d4;strokeColor=#82b366;" edge="1" parent="1">
          <mxGeometry width="50" height="50" relative="1" as="geometry">
            <mxPoint x="-109.29000000000002" y="450" as="sourcePoint" />
            <mxPoint x="-109.29000000000002" y="590" as="targetPoint" />
          </mxGeometry>
        </mxCell>
        <mxCell id="9Ep7C8gIcRbLe95KcG3j-37" value="" style="endArrow=classic;html=1;rounded=0;shadow=1;fillColor=#d5e8d4;strokeColor=#82b366;" edge="1" parent="1">
          <mxGeometry width="50" height="50" relative="1" as="geometry">
            <mxPoint x="-99.45999999999998" y="450" as="sourcePoint" />
            <mxPoint x="-99.45999999999998" y="590" as="targetPoint" />
          </mxGeometry>
        </mxCell>
        <mxCell id="9Ep7C8gIcRbLe95KcG3j-38" value="" style="endArrow=classic;html=1;rounded=0;shadow=1;fillColor=#d5e8d4;strokeColor=#82b366;" edge="1" parent="1">
          <mxGeometry width="50" height="50" relative="1" as="geometry">
            <mxPoint x="-89.46000000000004" y="450" as="sourcePoint" />
            <mxPoint x="-89.46000000000004" y="590" as="targetPoint" />
          </mxGeometry>
        </mxCell>
        <mxCell id="9Ep7C8gIcRbLe95KcG3j-39" value="" style="endArrow=classic;html=1;rounded=0;shadow=1;fillColor=#d5e8d4;strokeColor=#82b366;" edge="1" parent="1">
          <mxGeometry width="50" height="50" relative="1" as="geometry">
            <mxPoint x="-79.29000000000002" y="450" as="sourcePoint" />
            <mxPoint x="-79.29000000000002" y="590" as="targetPoint" />
          </mxGeometry>
        </mxCell>
        <mxCell id="9Ep7C8gIcRbLe95KcG3j-40" value="" style="endArrow=classic;html=1;rounded=0;shadow=1;fillColor=#d5e8d4;strokeColor=#82b366;" edge="1" parent="1">
          <mxGeometry width="50" height="50" relative="1" as="geometry">
            <mxPoint x="-69.29000000000002" y="450" as="sourcePoint" />
            <mxPoint x="-69.29000000000002" y="590" as="targetPoint" />
          </mxGeometry>
        </mxCell>
        <mxCell id="9Ep7C8gIcRbLe95KcG3j-43" value="" style="endArrow=none;dashed=1;html=1;dashPattern=1 3;strokeWidth=2;rounded=0;" edge="1" parent="1">
          <mxGeometry width="50" height="50" relative="1" as="geometry">
            <mxPoint x="-234" y="730" as="sourcePoint" />
            <mxPoint x="-234" y="220" as="targetPoint" />
          </mxGeometry>
        </mxCell>
        <mxCell id="9Ep7C8gIcRbLe95KcG3j-44" value="" style="endArrow=none;dashed=1;html=1;dashPattern=1 3;strokeWidth=2;rounded=0;" edge="1" parent="1">
          <mxGeometry width="50" height="50" relative="1" as="geometry">
            <mxPoint x="26" y="740" as="sourcePoint" />
            <mxPoint x="26" y="220" as="targetPoint" />
          </mxGeometry>
        </mxCell>
        <mxCell id="9Ep7C8gIcRbLe95KcG3j-47" value="Runtime" style="text;html=1;align=center;verticalAlign=middle;whiteSpace=wrap;rounded=0;fontSize=19;" vertex="1" parent="1">
          <mxGeometry x="-130" y="188" width="60" height="30" as="geometry" />
        </mxCell>
        <mxCell id="9Ep7C8gIcRbLe95KcG3j-48" value="timerTmp" style="text;html=1;align=center;verticalAlign=middle;whiteSpace=wrap;rounded=0;" vertex="1" parent="1">
          <mxGeometry x="36" y="410" width="80" height="30" as="geometry" />
        </mxCell>
        <mxCell id="9Ep7C8gIcRbLe95KcG3j-49" value="timerTmp" style="text;html=1;align=center;verticalAlign=middle;whiteSpace=wrap;rounded=0;" vertex="1" parent="1">
          <mxGeometry x="36" y="595" width="80" height="30" as="geometry" />
        </mxCell>
        <mxCell id="9Ep7C8gIcRbLe95KcG3j-51" value="" style="endArrow=none;dashed=1;html=1;dashPattern=1 3;strokeWidth=2;rounded=0;" edge="1" parent="1">
          <mxGeometry width="50" height="50" relative="1" as="geometry">
            <mxPoint x="206" y="740" as="sourcePoint" />
            <mxPoint x="206" y="220" as="targetPoint" />
          </mxGeometry>
        </mxCell>
        <mxCell id="9Ep7C8gIcRbLe95KcG3j-54" value="" style="endArrow=none;dashed=1;html=1;dashPattern=1 3;strokeWidth=2;rounded=0;" edge="1" parent="1">
          <mxGeometry width="50" height="50" relative="1" as="geometry">
            <mxPoint x="376" y="740" as="sourcePoint" />
            <mxPoint x="376" y="220" as="targetPoint" />
          </mxGeometry>
        </mxCell>
        <mxCell id="9Ep7C8gIcRbLe95KcG3j-65" value="timer" style="shape=table;startSize=30;container=1;collapsible=0;childLayout=tableLayout;strokeColor=default;fontSize=16;shadow=0;" vertex="1" parent="1">
          <mxGeometry x="220" y="570" width="150" height="150" as="geometry" />
        </mxCell>
        <mxCell id="9Ep7C8gIcRbLe95KcG3j-66" value="" style="shape=tableRow;horizontal=0;startSize=0;swimlaneHead=0;swimlaneBody=0;strokeColor=inherit;top=0;left=0;bottom=0;right=0;collapsible=0;dropTarget=0;fillColor=none;points=[[0,0.5],[1,0.5]];portConstraint=eastwest;fontSize=16;" vertex="1" parent="9Ep7C8gIcRbLe95KcG3j-65">
          <mxGeometry y="30" width="150" height="40" as="geometry" />
        </mxCell>
        <mxCell id="9Ep7C8gIcRbLe95KcG3j-67" value="key" style="shape=partialRectangle;html=1;whiteSpace=wrap;connectable=0;strokeColor=inherit;overflow=hidden;fillColor=none;top=0;left=0;bottom=0;right=0;pointerEvents=1;fontSize=16;" vertex="1" parent="9Ep7C8gIcRbLe95KcG3j-66">
          <mxGeometry width="50" height="40" as="geometry">
            <mxRectangle width="50" height="40" as="alternateBounds" />
          </mxGeometry>
        </mxCell>
        <mxCell id="9Ep7C8gIcRbLe95KcG3j-68" value="warp" style="shape=partialRectangle;html=1;whiteSpace=wrap;connectable=0;strokeColor=inherit;overflow=hidden;fillColor=none;top=0;left=0;bottom=0;right=0;pointerEvents=1;fontSize=16;" vertex="1" parent="9Ep7C8gIcRbLe95KcG3j-66">
          <mxGeometry x="50" width="40" height="40" as="geometry">
            <mxRectangle width="40" height="40" as="alternateBounds" />
          </mxGeometry>
        </mxCell>
        <mxCell id="9Ep7C8gIcRbLe95KcG3j-69" value="value" style="shape=partialRectangle;html=1;whiteSpace=wrap;connectable=0;strokeColor=inherit;overflow=hidden;fillColor=none;top=0;left=0;bottom=0;right=0;pointerEvents=1;fontSize=16;" vertex="1" parent="9Ep7C8gIcRbLe95KcG3j-66">
          <mxGeometry x="90" width="60" height="40" as="geometry">
            <mxRectangle width="60" height="40" as="alternateBounds" />
          </mxGeometry>
        </mxCell>
        <mxCell id="9Ep7C8gIcRbLe95KcG3j-70" value="" style="shape=tableRow;horizontal=0;startSize=0;swimlaneHead=0;swimlaneBody=0;strokeColor=inherit;top=0;left=0;bottom=0;right=0;collapsible=0;dropTarget=0;fillColor=none;points=[[0,0.5],[1,0.5]];portConstraint=eastwest;fontSize=16;" vertex="1" parent="9Ep7C8gIcRbLe95KcG3j-65">
          <mxGeometry y="70" width="150" height="40" as="geometry" />
        </mxCell>
        <mxCell id="9Ep7C8gIcRbLe95KcG3j-71" value="..." style="shape=partialRectangle;html=1;whiteSpace=wrap;connectable=0;strokeColor=inherit;overflow=hidden;fillColor=none;top=0;left=0;bottom=0;right=0;pointerEvents=1;fontSize=16;" vertex="1" parent="9Ep7C8gIcRbLe95KcG3j-70">
          <mxGeometry width="50" height="40" as="geometry">
            <mxRectangle width="50" height="40" as="alternateBounds" />
          </mxGeometry>
        </mxCell>
        <mxCell id="9Ep7C8gIcRbLe95KcG3j-72" value="..." style="shape=partialRectangle;html=1;whiteSpace=wrap;connectable=0;strokeColor=inherit;overflow=hidden;fillColor=none;top=0;left=0;bottom=0;right=0;pointerEvents=1;fontSize=16;" vertex="1" parent="9Ep7C8gIcRbLe95KcG3j-70">
          <mxGeometry x="50" width="40" height="40" as="geometry">
            <mxRectangle width="40" height="40" as="alternateBounds" />
          </mxGeometry>
        </mxCell>
        <mxCell id="9Ep7C8gIcRbLe95KcG3j-73" value="..." style="shape=partialRectangle;html=1;whiteSpace=wrap;connectable=0;strokeColor=inherit;overflow=hidden;fillColor=none;top=0;left=0;bottom=0;right=0;pointerEvents=1;fontSize=16;" vertex="1" parent="9Ep7C8gIcRbLe95KcG3j-70">
          <mxGeometry x="90" width="60" height="40" as="geometry">
            <mxRectangle width="60" height="40" as="alternateBounds" />
          </mxGeometry>
        </mxCell>
        <mxCell id="9Ep7C8gIcRbLe95KcG3j-74" value="" style="shape=tableRow;horizontal=0;startSize=0;swimlaneHead=0;swimlaneBody=0;strokeColor=inherit;top=0;left=0;bottom=0;right=0;collapsible=0;dropTarget=0;fillColor=none;points=[[0,0.5],[1,0.5]];portConstraint=eastwest;fontSize=16;" vertex="1" parent="9Ep7C8gIcRbLe95KcG3j-65">
          <mxGeometry y="110" width="150" height="40" as="geometry" />
        </mxCell>
        <mxCell id="9Ep7C8gIcRbLe95KcG3j-75" value="&lt;font style=&quot;font-size: 14px;&quot;&gt;phase1&lt;/font&gt;" style="shape=partialRectangle;html=1;whiteSpace=wrap;connectable=0;strokeColor=inherit;overflow=hidden;fillColor=none;top=0;left=0;bottom=0;right=0;pointerEvents=1;fontSize=16;" vertex="1" parent="9Ep7C8gIcRbLe95KcG3j-74">
          <mxGeometry width="50" height="40" as="geometry">
            <mxRectangle width="50" height="40" as="alternateBounds" />
          </mxGeometry>
        </mxCell>
        <mxCell id="9Ep7C8gIcRbLe95KcG3j-76" value="0" style="shape=partialRectangle;html=1;whiteSpace=wrap;connectable=0;strokeColor=inherit;overflow=hidden;fillColor=none;top=0;left=0;bottom=0;right=0;pointerEvents=1;fontSize=16;" vertex="1" parent="9Ep7C8gIcRbLe95KcG3j-74">
          <mxGeometry x="50" width="40" height="40" as="geometry">
            <mxRectangle width="40" height="40" as="alternateBounds" />
          </mxGeometry>
        </mxCell>
        <mxCell id="9Ep7C8gIcRbLe95KcG3j-77" value="&lt;font style=&quot;font-size: 10px;&quot;&gt;timerTmp&lt;/font&gt;" style="shape=partialRectangle;html=1;whiteSpace=wrap;connectable=0;strokeColor=inherit;overflow=hidden;fillColor=none;top=0;left=0;bottom=0;right=0;pointerEvents=1;fontSize=16;" vertex="1" parent="9Ep7C8gIcRbLe95KcG3j-74">
          <mxGeometry x="90" width="60" height="40" as="geometry">
            <mxRectangle width="60" height="40" as="alternateBounds" />
          </mxGeometry>
        </mxCell>
        <mxCell id="9Ep7C8gIcRbLe95KcG3j-81" value="" style="shape=flexArrow;endArrow=classic;html=1;rounded=0;exitX=1;exitY=0.5;exitDx=0;exitDy=0;entryX=0;entryY=0.5;entryDx=0;entryDy=0;" edge="1" parent="1">
          <mxGeometry width="50" height="50" relative="1" as="geometry">
            <mxPoint x="116" y="714.5799999999999" as="sourcePoint" />
            <mxPoint x="216" y="714.5799999999999" as="targetPoint" />
          </mxGeometry>
        </mxCell>
        <mxCell id="9Ep7C8gIcRbLe95KcG3j-82" value="write global" style="edgeLabel;html=1;align=center;verticalAlign=middle;resizable=0;points=[];labelBackgroundColor=none;" vertex="1" connectable="0" parent="9Ep7C8gIcRbLe95KcG3j-81">
          <mxGeometry x="-0.0336" y="2" relative="1" as="geometry">
            <mxPoint x="-8" y="-13" as="offset" />
          </mxGeometry>
        </mxCell>
        <mxCell id="9Ep7C8gIcRbLe95KcG3j-83" value="" style="shape=flexArrow;endArrow=classic;html=1;rounded=0;exitX=1;exitY=0.5;exitDx=0;exitDy=0;" edge="1" parent="1" source="9Ep7C8gIcRbLe95KcG3j-70">
          <mxGeometry width="50" height="50" relative="1" as="geometry">
            <mxPoint x="380" y="659.71" as="sourcePoint" />
            <mxPoint x="480" y="660" as="targetPoint" />
          </mxGeometry>
        </mxCell>
        <mxCell id="9Ep7C8gIcRbLe95KcG3j-84" value="copy to Host" style="edgeLabel;html=1;align=center;verticalAlign=middle;resizable=0;points=[];labelBackgroundColor=none;" vertex="1" connectable="0" parent="9Ep7C8gIcRbLe95KcG3j-83">
          <mxGeometry x="-0.1322" y="5" relative="1" as="geometry">
            <mxPoint x="2" y="-10" as="offset" />
          </mxGeometry>
        </mxCell>
        <mxCell id="9Ep7C8gIcRbLe95KcG3j-85" value="&lt;div&gt;//other code&lt;/div&gt;&lt;div&gt;&lt;b&gt;&lt;font color=&quot;#ff1100&quot;&gt;&lt;span style=&quot;background-color: initial;&quot;&gt;TIMER_IN(Phase1)&lt;/span&gt;&lt;br&gt;&lt;/font&gt;&lt;/b&gt;&lt;/div&gt;&lt;div&gt;&lt;div&gt;{&lt;/div&gt;&lt;/div&gt;&lt;div&gt;&lt;br&gt;&lt;/div&gt;&lt;div&gt;/*&lt;/div&gt;&lt;div&gt;*&lt;/div&gt;&lt;div&gt;* phase1 code&lt;/div&gt;&lt;div&gt;*&lt;/div&gt;&lt;div&gt;*/&lt;/div&gt;&lt;div&gt;&lt;br&gt;&lt;/div&gt;&lt;div&gt;&lt;br&gt;&lt;/div&gt;&lt;div&gt;&lt;br&gt;&lt;/div&gt;&lt;div&gt;}&lt;/div&gt;&lt;div&gt;&lt;font color=&quot;#ff1100&quot;&gt;&lt;b&gt;TIMER_OUT(Phase1)&lt;/b&gt;&lt;/font&gt;&lt;/div&gt;&lt;div&gt;//other code&lt;br&gt;&lt;div&gt;&lt;br&gt;&lt;/div&gt;&lt;/div&gt;" style="text;html=1;align=left;verticalAlign=middle;whiteSpace=wrap;rounded=0;" vertex="1" parent="1">
          <mxGeometry x="-383" y="410" width="130" height="220" as="geometry" />
        </mxCell>
        <mxCell id="9Ep7C8gIcRbLe95KcG3j-86" value="" style="endArrow=none;dashed=1;html=1;dashPattern=1 3;strokeWidth=2;rounded=0;" edge="1" parent="1">
          <mxGeometry width="50" height="50" relative="1" as="geometry">
            <mxPoint x="-400" y="730" as="sourcePoint" />
            <mxPoint x="-400" y="220" as="targetPoint" />
          </mxGeometry>
        </mxCell>
        <mxCell id="9Ep7C8gIcRbLe95KcG3j-87" value="Source" style="text;html=1;align=center;verticalAlign=middle;whiteSpace=wrap;rounded=0;fontSize=19;" vertex="1" parent="1">
          <mxGeometry x="-348" y="188" width="60" height="30" as="geometry" />
        </mxCell>
        <mxCell id="9Ep7C8gIcRbLe95KcG3j-94" value="warp0" style="text;html=1;align=center;verticalAlign=middle;whiteSpace=wrap;rounded=0;" vertex="1" parent="1">
          <mxGeometry x="-124" y="240" width="60" height="30" as="geometry" />
        </mxCell>
        <mxCell id="9Ep7C8gIcRbLe95KcG3j-95" value="" style="edgeStyle=orthogonalEdgeStyle;rounded=0;orthogonalLoop=1;jettySize=auto;html=1;" edge="1" parent="1" source="9Ep7C8gIcRbLe95KcG3j-97" target="9Ep7C8gIcRbLe95KcG3j-112">
          <mxGeometry relative="1" as="geometry" />
        </mxCell>
        <mxCell id="9Ep7C8gIcRbLe95KcG3j-96" value="create" style="edgeLabel;html=1;align=center;verticalAlign=middle;resizable=0;points=[];labelBackgroundColor=none;" vertex="1" connectable="0" parent="9Ep7C8gIcRbLe95KcG3j-95">
          <mxGeometry x="-0.0469" relative="1" as="geometry">
            <mxPoint x="-3" y="-15" as="offset" />
          </mxGeometry>
        </mxCell>
        <mxCell id="9Ep7C8gIcRbLe95KcG3j-97" value="TIMER_IN" style="rounded=0;whiteSpace=wrap;html=1;fillColor=#ffe6cc;strokeColor=#d79b00;shadow=1;" vertex="1" parent="1">
          <mxGeometry x="-154" y="410" width="120" height="30" as="geometry" />
        </mxCell>
        <mxCell id="9Ep7C8gIcRbLe95KcG3j-98" value="" style="edgeStyle=orthogonalEdgeStyle;rounded=0;orthogonalLoop=1;jettySize=auto;html=1;entryX=0;entryY=0.5;entryDx=0;entryDy=0;" edge="1" parent="1" source="9Ep7C8gIcRbLe95KcG3j-100" target="9Ep7C8gIcRbLe95KcG3j-113">
          <mxGeometry relative="1" as="geometry">
            <mxPoint x="46" y="615" as="targetPoint" />
          </mxGeometry>
        </mxCell>
        <mxCell id="9Ep7C8gIcRbLe95KcG3j-99" value="update" style="edgeLabel;html=1;align=center;verticalAlign=middle;resizable=0;points=[];labelBackgroundColor=none;" vertex="1" connectable="0" parent="9Ep7C8gIcRbLe95KcG3j-98">
          <mxGeometry x="-0.1828" relative="1" as="geometry">
            <mxPoint y="-15" as="offset" />
          </mxGeometry>
        </mxCell>
        <mxCell id="9Ep7C8gIcRbLe95KcG3j-100" value="TIMER_OUT" style="rounded=0;whiteSpace=wrap;html=1;fillColor=#ffe6cc;strokeColor=#d79b00;shadow=1;" vertex="1" parent="1">
          <mxGeometry x="-154" y="595" width="120" height="30" as="geometry" />
        </mxCell>
        <mxCell id="9Ep7C8gIcRbLe95KcG3j-101" value="" style="shape=curlyBracket;whiteSpace=wrap;html=1;rounded=1;labelPosition=left;verticalLabelPosition=middle;align=right;verticalAlign=middle;" vertex="1" parent="1">
          <mxGeometry x="-184" y="420" width="20" height="200" as="geometry" />
        </mxCell>
        <mxCell id="9Ep7C8gIcRbLe95KcG3j-102" value="phase1" style="text;html=1;align=center;verticalAlign=middle;whiteSpace=wrap;rounded=0;" vertex="1" parent="1">
          <mxGeometry x="-234" y="505" width="60" height="30" as="geometry" />
        </mxCell>
        <mxCell id="9Ep7C8gIcRbLe95KcG3j-109" value="" style="endArrow=none;dashed=1;html=1;dashPattern=1 3;strokeWidth=2;rounded=0;" edge="1" parent="1">
          <mxGeometry width="50" height="50" relative="1" as="geometry">
            <mxPoint x="-234" y="730" as="sourcePoint" />
            <mxPoint x="-234" y="220" as="targetPoint" />
          </mxGeometry>
        </mxCell>
        <mxCell id="9Ep7C8gIcRbLe95KcG3j-110" value="" style="endArrow=none;dashed=1;html=1;dashPattern=1 3;strokeWidth=2;rounded=0;" edge="1" parent="1">
          <mxGeometry width="50" height="50" relative="1" as="geometry">
            <mxPoint x="26" y="740" as="sourcePoint" />
            <mxPoint x="26" y="220" as="targetPoint" />
          </mxGeometry>
        </mxCell>
        <mxCell id="9Ep7C8gIcRbLe95KcG3j-112" value="timerTmp" style="text;html=1;align=center;verticalAlign=middle;whiteSpace=wrap;rounded=0;" vertex="1" parent="1">
          <mxGeometry x="36" y="410" width="80" height="30" as="geometry" />
        </mxCell>
        <mxCell id="9Ep7C8gIcRbLe95KcG3j-113" value="timerTmp" style="text;html=1;align=center;verticalAlign=middle;whiteSpace=wrap;rounded=0;" vertex="1" parent="1">
          <mxGeometry x="36" y="595" width="80" height="30" as="geometry" />
        </mxCell>
        <mxCell id="9Ep7C8gIcRbLe95KcG3j-114" value="" style="endArrow=none;dashed=1;html=1;dashPattern=1 3;strokeWidth=2;rounded=0;" edge="1" parent="1">
          <mxGeometry width="50" height="50" relative="1" as="geometry">
            <mxPoint x="206" y="740" as="sourcePoint" />
            <mxPoint x="206" y="220" as="targetPoint" />
          </mxGeometry>
        </mxCell>
        <mxCell id="9Ep7C8gIcRbLe95KcG3j-115" value="register/Shared" style="text;html=1;align=center;verticalAlign=middle;whiteSpace=wrap;rounded=0;fontSize=19;" vertex="1" parent="1">
          <mxGeometry x="83" y="188" width="60" height="30" as="geometry" />
        </mxCell>
        <mxCell id="9Ep7C8gIcRbLe95KcG3j-116" value="" style="endArrow=none;dashed=1;html=1;dashPattern=1 3;strokeWidth=2;rounded=0;" edge="1" parent="1">
          <mxGeometry width="50" height="50" relative="1" as="geometry">
            <mxPoint x="376" y="740" as="sourcePoint" />
            <mxPoint x="376" y="220" as="targetPoint" />
          </mxGeometry>
        </mxCell>
        <mxCell id="9Ep7C8gIcRbLe95KcG3j-117" value="Global" style="text;html=1;align=center;verticalAlign=middle;whiteSpace=wrap;rounded=0;fontSize=19;" vertex="1" parent="1">
          <mxGeometry x="261" y="188" width="60" height="30" as="geometry" />
        </mxCell>
        <mxCell id="9Ep7C8gIcRbLe95KcG3j-118" value="timer" style="shape=table;startSize=30;container=1;collapsible=0;childLayout=tableLayout;strokeColor=default;fontSize=16;shadow=0;" vertex="1" parent="1">
          <mxGeometry x="220" y="570" width="150" height="150" as="geometry" />
        </mxCell>
        <mxCell id="9Ep7C8gIcRbLe95KcG3j-119" value="" style="shape=tableRow;horizontal=0;startSize=0;swimlaneHead=0;swimlaneBody=0;strokeColor=inherit;top=0;left=0;bottom=0;right=0;collapsible=0;dropTarget=0;fillColor=none;points=[[0,0.5],[1,0.5]];portConstraint=eastwest;fontSize=16;" vertex="1" parent="9Ep7C8gIcRbLe95KcG3j-118">
          <mxGeometry y="30" width="150" height="40" as="geometry" />
        </mxCell>
        <mxCell id="9Ep7C8gIcRbLe95KcG3j-120" value="key" style="shape=partialRectangle;html=1;whiteSpace=wrap;connectable=0;strokeColor=inherit;overflow=hidden;fillColor=none;top=0;left=0;bottom=0;right=0;pointerEvents=1;fontSize=16;" vertex="1" parent="9Ep7C8gIcRbLe95KcG3j-119">
          <mxGeometry width="50" height="40" as="geometry">
            <mxRectangle width="50" height="40" as="alternateBounds" />
          </mxGeometry>
        </mxCell>
        <mxCell id="9Ep7C8gIcRbLe95KcG3j-121" value="warp" style="shape=partialRectangle;html=1;whiteSpace=wrap;connectable=0;strokeColor=inherit;overflow=hidden;fillColor=none;top=0;left=0;bottom=0;right=0;pointerEvents=1;fontSize=16;" vertex="1" parent="9Ep7C8gIcRbLe95KcG3j-119">
          <mxGeometry x="50" width="40" height="40" as="geometry">
            <mxRectangle width="40" height="40" as="alternateBounds" />
          </mxGeometry>
        </mxCell>
        <mxCell id="9Ep7C8gIcRbLe95KcG3j-122" value="value" style="shape=partialRectangle;html=1;whiteSpace=wrap;connectable=0;strokeColor=inherit;overflow=hidden;fillColor=none;top=0;left=0;bottom=0;right=0;pointerEvents=1;fontSize=16;" vertex="1" parent="9Ep7C8gIcRbLe95KcG3j-119">
          <mxGeometry x="90" width="60" height="40" as="geometry">
            <mxRectangle width="60" height="40" as="alternateBounds" />
          </mxGeometry>
        </mxCell>
        <mxCell id="9Ep7C8gIcRbLe95KcG3j-123" value="" style="shape=tableRow;horizontal=0;startSize=0;swimlaneHead=0;swimlaneBody=0;strokeColor=inherit;top=0;left=0;bottom=0;right=0;collapsible=0;dropTarget=0;fillColor=none;points=[[0,0.5],[1,0.5]];portConstraint=eastwest;fontSize=16;" vertex="1" parent="9Ep7C8gIcRbLe95KcG3j-118">
          <mxGeometry y="70" width="150" height="40" as="geometry" />
        </mxCell>
        <mxCell id="9Ep7C8gIcRbLe95KcG3j-124" value="..." style="shape=partialRectangle;html=1;whiteSpace=wrap;connectable=0;strokeColor=inherit;overflow=hidden;fillColor=none;top=0;left=0;bottom=0;right=0;pointerEvents=1;fontSize=16;" vertex="1" parent="9Ep7C8gIcRbLe95KcG3j-123">
          <mxGeometry width="50" height="40" as="geometry">
            <mxRectangle width="50" height="40" as="alternateBounds" />
          </mxGeometry>
        </mxCell>
        <mxCell id="9Ep7C8gIcRbLe95KcG3j-125" value="..." style="shape=partialRectangle;html=1;whiteSpace=wrap;connectable=0;strokeColor=inherit;overflow=hidden;fillColor=none;top=0;left=0;bottom=0;right=0;pointerEvents=1;fontSize=16;" vertex="1" parent="9Ep7C8gIcRbLe95KcG3j-123">
          <mxGeometry x="50" width="40" height="40" as="geometry">
            <mxRectangle width="40" height="40" as="alternateBounds" />
          </mxGeometry>
        </mxCell>
        <mxCell id="9Ep7C8gIcRbLe95KcG3j-126" value="..." style="shape=partialRectangle;html=1;whiteSpace=wrap;connectable=0;strokeColor=inherit;overflow=hidden;fillColor=none;top=0;left=0;bottom=0;right=0;pointerEvents=1;fontSize=16;" vertex="1" parent="9Ep7C8gIcRbLe95KcG3j-123">
          <mxGeometry x="90" width="60" height="40" as="geometry">
            <mxRectangle width="60" height="40" as="alternateBounds" />
          </mxGeometry>
        </mxCell>
        <mxCell id="9Ep7C8gIcRbLe95KcG3j-127" value="" style="shape=tableRow;horizontal=0;startSize=0;swimlaneHead=0;swimlaneBody=0;strokeColor=inherit;top=0;left=0;bottom=0;right=0;collapsible=0;dropTarget=0;fillColor=none;points=[[0,0.5],[1,0.5]];portConstraint=eastwest;fontSize=16;" vertex="1" parent="9Ep7C8gIcRbLe95KcG3j-118">
          <mxGeometry y="110" width="150" height="40" as="geometry" />
        </mxCell>
        <mxCell id="9Ep7C8gIcRbLe95KcG3j-128" value="&lt;font style=&quot;font-size: 14px;&quot;&gt;phase1&lt;/font&gt;" style="shape=partialRectangle;html=1;whiteSpace=wrap;connectable=0;strokeColor=inherit;overflow=hidden;fillColor=none;top=0;left=0;bottom=0;right=0;pointerEvents=1;fontSize=16;" vertex="1" parent="9Ep7C8gIcRbLe95KcG3j-127">
          <mxGeometry width="50" height="40" as="geometry">
            <mxRectangle width="50" height="40" as="alternateBounds" />
          </mxGeometry>
        </mxCell>
        <mxCell id="9Ep7C8gIcRbLe95KcG3j-129" value="0" style="shape=partialRectangle;html=1;whiteSpace=wrap;connectable=0;strokeColor=inherit;overflow=hidden;fillColor=none;top=0;left=0;bottom=0;right=0;pointerEvents=1;fontSize=16;" vertex="1" parent="9Ep7C8gIcRbLe95KcG3j-127">
          <mxGeometry x="50" width="40" height="40" as="geometry">
            <mxRectangle width="40" height="40" as="alternateBounds" />
          </mxGeometry>
        </mxCell>
        <mxCell id="9Ep7C8gIcRbLe95KcG3j-130" value="&lt;font style=&quot;font-size: 10px;&quot;&gt;timerTmp&lt;/font&gt;" style="shape=partialRectangle;html=1;whiteSpace=wrap;connectable=0;strokeColor=inherit;overflow=hidden;fillColor=none;top=0;left=0;bottom=0;right=0;pointerEvents=1;fontSize=16;" vertex="1" parent="9Ep7C8gIcRbLe95KcG3j-127">
          <mxGeometry x="90" width="60" height="40" as="geometry">
            <mxRectangle width="60" height="40" as="alternateBounds" />
          </mxGeometry>
        </mxCell>
        <mxCell id="9Ep7C8gIcRbLe95KcG3j-133" value="" style="shape=flexArrow;endArrow=classic;html=1;rounded=0;exitX=1;exitY=0.5;exitDx=0;exitDy=0;" edge="1" parent="1" source="9Ep7C8gIcRbLe95KcG3j-123">
          <mxGeometry width="50" height="50" relative="1" as="geometry">
            <mxPoint x="380" y="659.71" as="sourcePoint" />
            <mxPoint x="480" y="660" as="targetPoint" />
          </mxGeometry>
        </mxCell>
        <mxCell id="9Ep7C8gIcRbLe95KcG3j-134" value="copy to Host" style="edgeLabel;html=1;align=center;verticalAlign=middle;resizable=0;points=[];labelBackgroundColor=none;" vertex="1" connectable="0" parent="9Ep7C8gIcRbLe95KcG3j-133">
          <mxGeometry x="-0.1322" y="5" relative="1" as="geometry">
            <mxPoint x="2" y="-10" as="offset" />
          </mxGeometry>
        </mxCell>
        <mxCell id="9Ep7C8gIcRbLe95KcG3j-135" value="&lt;div&gt;//other code&lt;/div&gt;&lt;div&gt;&lt;b&gt;&lt;font color=&quot;#ff1100&quot;&gt;&lt;span style=&quot;background-color: initial;&quot;&gt;TIMER_IN(Phase1)&lt;/span&gt;&lt;br&gt;&lt;/font&gt;&lt;/b&gt;&lt;/div&gt;&lt;div&gt;&lt;div&gt;{&lt;/div&gt;&lt;/div&gt;&lt;div&gt;&lt;br&gt;&lt;/div&gt;&lt;div&gt;/*&lt;/div&gt;&lt;div&gt;*&lt;/div&gt;&lt;div&gt;* phase1 code&lt;/div&gt;&lt;div&gt;*&lt;/div&gt;&lt;div&gt;*/&lt;/div&gt;&lt;div&gt;&lt;br&gt;&lt;/div&gt;&lt;div&gt;&lt;br&gt;&lt;/div&gt;&lt;div&gt;&lt;br&gt;&lt;/div&gt;&lt;div&gt;}&lt;/div&gt;&lt;div&gt;&lt;font color=&quot;#ff1100&quot;&gt;&lt;b&gt;TIMER_OUT(Phase1)&lt;/b&gt;&lt;/font&gt;&lt;/div&gt;&lt;div&gt;//other code&lt;br&gt;&lt;div&gt;&lt;br&gt;&lt;/div&gt;&lt;/div&gt;" style="text;html=1;align=left;verticalAlign=middle;whiteSpace=wrap;rounded=0;" vertex="1" parent="1">
          <mxGeometry x="-383" y="410" width="130" height="220" as="geometry" />
        </mxCell>
        <mxCell id="9Ep7C8gIcRbLe95KcG3j-136" value="" style="endArrow=none;dashed=1;html=1;dashPattern=1 3;strokeWidth=2;rounded=0;" edge="1" parent="1">
          <mxGeometry width="50" height="50" relative="1" as="geometry">
            <mxPoint x="-400" y="730" as="sourcePoint" />
            <mxPoint x="-400" y="220" as="targetPoint" />
          </mxGeometry>
        </mxCell>
        <mxCell id="9Ep7C8gIcRbLe95KcG3j-203" value="" style="endArrow=classic;html=1;rounded=0;shadow=1;fillColor=#d5e8d4;strokeColor=#82b366;" edge="1" parent="1">
          <mxGeometry width="50" height="50" relative="1" as="geometry">
            <mxPoint x="-119.42000000000002" y="630" as="sourcePoint" />
            <mxPoint x="-119" y="700" as="targetPoint" />
          </mxGeometry>
        </mxCell>
        <mxCell id="9Ep7C8gIcRbLe95KcG3j-215" value="" style="endArrow=classic;html=1;rounded=0;shadow=1;fillColor=#d5e8d4;strokeColor=#82b366;" edge="1" parent="1">
          <mxGeometry width="50" height="50" relative="1" as="geometry">
            <mxPoint x="-109.42000000000002" y="630" as="sourcePoint" />
            <mxPoint x="-109" y="700" as="targetPoint" />
          </mxGeometry>
        </mxCell>
        <mxCell id="9Ep7C8gIcRbLe95KcG3j-216" value="" style="endArrow=classic;html=1;rounded=0;shadow=1;fillColor=#d5e8d4;strokeColor=#82b366;" edge="1" parent="1">
          <mxGeometry width="50" height="50" relative="1" as="geometry">
            <mxPoint x="-99.42000000000002" y="630" as="sourcePoint" />
            <mxPoint x="-99" y="700" as="targetPoint" />
          </mxGeometry>
        </mxCell>
        <mxCell id="9Ep7C8gIcRbLe95KcG3j-217" value="" style="endArrow=classic;html=1;rounded=0;shadow=1;fillColor=#d5e8d4;strokeColor=#82b366;" edge="1" parent="1">
          <mxGeometry width="50" height="50" relative="1" as="geometry">
            <mxPoint x="-89.42000000000002" y="630" as="sourcePoint" />
            <mxPoint x="-89" y="700" as="targetPoint" />
          </mxGeometry>
        </mxCell>
        <mxCell id="9Ep7C8gIcRbLe95KcG3j-218" value="" style="endArrow=classic;html=1;rounded=0;shadow=1;fillColor=#d5e8d4;strokeColor=#82b366;" edge="1" parent="1">
          <mxGeometry width="50" height="50" relative="1" as="geometry">
            <mxPoint x="-80.83000000000001" y="630" as="sourcePoint" />
            <mxPoint x="-80.41" y="700" as="targetPoint" />
          </mxGeometry>
        </mxCell>
        <mxCell id="9Ep7C8gIcRbLe95KcG3j-219" value="" style="endArrow=classic;html=1;rounded=0;shadow=1;fillColor=#d5e8d4;strokeColor=#82b366;" edge="1" parent="1">
          <mxGeometry width="50" height="50" relative="1" as="geometry">
            <mxPoint x="-70.83000000000001" y="630" as="sourcePoint" />
            <mxPoint x="-70.41" y="700" as="targetPoint" />
          </mxGeometry>
        </mxCell>
        <mxCell id="9Ep7C8gIcRbLe95KcG3j-221" style="edgeStyle=orthogonalEdgeStyle;rounded=0;orthogonalLoop=1;jettySize=auto;html=1;exitX=1;exitY=0.5;exitDx=0;exitDy=0;" edge="1" parent="1" source="9Ep7C8gIcRbLe95KcG3j-220">
          <mxGeometry relative="1" as="geometry">
            <mxPoint x="100" y="715.1666666666667" as="targetPoint" />
          </mxGeometry>
        </mxCell>
        <mxCell id="9Ep7C8gIcRbLe95KcG3j-220" value="TIMER_DEINIT" style="rounded=0;whiteSpace=wrap;html=1;fillColor=#ffe6cc;strokeColor=#d79b00;shadow=1;" vertex="1" parent="1">
          <mxGeometry x="-154" y="700" width="120" height="30" as="geometry" />
        </mxCell>
      </root>
    </mxGraphModel>
  </diagram>
</mxfile>
